<svg xmlns="http://www.w3.org/2000/svg" viewBox="0 0 397.85 397.85"><defs><style>.cls-1{fill:#f6f6f6;stroke:#dadada;}.cls-1,.cls-2,.cls-3,.cls-4{stroke-miterlimit:10;}.cls-2,.cls-3,.cls-4{fill:none;}.cls-2{stroke:#9d9d9c;}.cls-3{stroke:#253675;}.cls-3,.cls-4{stroke-width:10px;}.cls-4{stroke:gold;}</style></defs><g id="Capa_1" data-name="Capa 1"><rect class="cls-1" x="0.5" y="0.5" width="396.85" height="396.85"/><rect class="cls-2" x="122.4" y="122.4" width="180.4" height="180.4" transform="translate(-101.73 198.93) rotate(-45)"/></g><g id="Capa_2" data-name="Capa 2"><line class="cls-3" x1="342.81" y1="215.25" x2="201.02" y2="73.58"/><line class="cls-3" x1="204.17" y1="170.32" x2="204.17" y2="79.17"/><line class="cls-3" x1="226.98" y1="191.7" x2="202.3" y2="166.9"/><line class="cls-3" x1="182.28" y1="338.14" x2="328.49" y2="201.03"/><line class="cls-3" x1="182.28" y1="338.14" x2="328.49" y2="201.03"/></g><g id="Capa_3" data-name="Capa 3"><line class="cls-4" x1="193.26" y1="318.31" x2="193.26" y2="227.17"/><line class="cls-4" x1="193.41" y1="320.97" x2="57.19" y2="184.75"/><line class="cls-4" x1="71.37" y1="198.93" x2="213.1" y2="57.19"/><line class="cls-4" x1="194.75" y1="230.58" x2="170.07" y2="205.79"/><line class="cls-3" x1="182.28" y1="338.14" x2="328.49" y2="201.03"/></g><g id="Capa_5" data-name="Capa 5"><circle class="cls-3" cx="349.97" cy="222.41" r="11.3"/><circle class="cls-3" cx="172.22" cy="347.58" r="11.3"/><circle class="cls-4" cx="47.64" cy="175.2" r="11.3"/><circle class="cls-4" cx="222.67" cy="47.62" r="11.3"/></g><g id="Capa_4" data-name="Capa 4"><rect class="cls-4" x="165.2" y="201.11" width="21.61" height="21.61" transform="translate(187.72 -76.06) rotate(45)"/><rect class="cls-3" x="238.37" y="201.11" width="21.61" height="21.61" transform="translate(209.15 -127.79) rotate(45)"/></g></svg>